<svg width="75" height="16" viewBox="0 0 75 16" fill="none" xmlns="http://www.w3.org/2000/svg">
<path d="M15.4241 9.93677C14.3782 14.2225 10.1295 16.8307 5.93417 15.7619C1.74053 14.6934 -0.812406 10.3525 0.233923 6.06708C1.27927 1.7809 5.52797 -0.827562 9.7221 0.240921C13.9172 1.3094 16.4699 5.65084 15.4241 9.93677Z" fill="#FCA014"/>
<path d="M11.2812 6.86123C11.4371 5.79675 10.6438 5.22451 9.55906 4.84276L9.91094 3.40079L9.0518 3.18204L8.70923 4.58602C8.48337 4.52852 8.25139 4.47427 8.02089 4.42052L8.36591 3.00729L7.50727 2.78854L7.15515 4.23002C6.9682 4.18652 6.78467 4.14353 6.60653 4.09828L6.60751 4.09378L5.42268 3.79153L5.19414 4.72901C5.19414 4.72901 5.83158 4.87826 5.81812 4.88751C6.16608 4.97626 6.22896 5.2115 6.21844 5.398L5.81762 7.04073C5.8416 7.04698 5.87269 7.05598 5.90694 7.06998C5.87831 7.06273 5.84773 7.05473 5.81616 7.04698L5.25433 9.34819C5.21175 9.45619 5.10384 9.61819 4.86061 9.55669C4.86918 9.56944 4.23614 9.39744 4.23614 9.39744L3.80963 10.4022L4.92766 10.6869C5.13565 10.7402 5.33948 10.7959 5.54014 10.8484L5.1846 12.3069L6.04275 12.5256L6.39487 11.0827C6.62929 11.1477 6.85686 11.2077 7.07954 11.2642L6.72864 12.7004L7.58777 12.9191L7.94332 11.4634C9.40833 11.7467 10.51 11.6324 10.9737 10.2787C11.3473 9.18869 10.9551 8.55996 10.1843 8.14996C10.7456 8.01772 11.1684 7.64047 11.2812 6.86123ZM9.31828 9.67344C9.05278 10.7634 7.25645 10.1742 6.67407 10.0264L7.14585 8.09421C7.72823 8.24271 9.59577 8.53671 9.31828 9.67344ZM9.58402 6.84548C9.34177 7.83696 7.84666 7.33322 7.36167 7.20972L7.78941 5.45726C8.2744 5.58075 9.8363 5.81125 9.58402 6.84548Z" fill="white"/>
<g opacity="0.5">
<path d="M22.9463 4.84128C23.5813 4.84128 24.1299 4.95752 24.5909 5.18577C25.0541 5.41627 25.4363 5.72677 25.743 6.11726C26.0454 6.50975 26.2705 6.9685 26.4159 7.49424C26.5602 8.02148 26.6327 8.58822 26.6327 9.19496C26.6327 10.1269 26.4655 11.0074 26.1281 11.8374C25.7907 12.6687 25.3328 13.3896 24.7505 14.0046C24.1686 14.6189 23.4815 15.1031 22.6891 15.4609C21.898 15.8189 21.0379 15.9979 20.1144 15.9979C19.995 15.9979 19.785 15.9944 19.4885 15.9881C19.1919 15.9819 18.851 15.9506 18.4693 15.8979C18.0851 15.8431 17.6789 15.7621 17.25 15.6536C16.8213 15.5471 16.4141 15.3979 16.0306 15.2084L19.4594 0.489601L22.5303 0.00335693L21.3027 5.22653C21.5655 5.10553 21.8302 5.01178 22.0945 4.94353C22.359 4.87628 22.6429 4.84128 22.9463 4.84128ZM20.3704 13.5089C20.8328 13.5089 21.2686 13.3926 21.678 13.1644C22.0886 12.9359 22.443 12.6274 22.7398 12.2432C23.0366 11.8572 23.2715 11.4224 23.4428 10.9367C23.6141 10.4509 23.7007 9.9442 23.7007 9.41696C23.7007 8.76922 23.5947 8.26398 23.3836 7.89873C23.1724 7.53499 22.7816 7.35199 22.2142 7.35199C22.0282 7.35199 21.7886 7.38824 21.4916 7.45299C21.1935 7.52174 20.9268 7.66449 20.6877 7.87923L19.3806 13.4261C19.4594 13.4404 19.5291 13.4539 19.5885 13.4666C19.6468 13.4804 19.7111 13.4901 19.7753 13.4969C19.843 13.5046 19.9206 13.5086 20.0143 13.5086C20.108 13.5086 20.2253 13.5089 20.3704 13.5089Z" fill="#666666"/>
<path d="M29.8174 15.7161H26.8842L29.3612 5.06702H32.3145L29.8174 15.7161ZM31.2447 3.76954C30.8353 3.76954 30.4641 3.64504 30.1347 3.39554C29.8027 3.14755 29.6382 2.7658 29.6382 2.25131C29.6382 1.96832 29.6945 1.70282 29.8061 1.45232C29.9194 1.20232 30.0674 0.98708 30.2529 0.804083C30.4382 0.622586 30.6528 0.477585 30.8965 0.368337C31.1417 0.260839 31.4025 0.207092 31.6805 0.207092C32.0896 0.207092 32.4589 0.331591 32.7895 0.581087C33.1188 0.831833 33.2845 1.21358 33.2845 1.72532C33.2845 2.00931 33.2284 2.27581 33.1159 2.5258C33.0041 2.7758 32.856 2.99104 32.6705 3.17404C32.4868 3.35579 32.2702 3.50029 32.027 3.60854C31.7815 3.71778 31.5217 3.76954 31.2447 3.76954Z" fill="#666666"/>
<path d="M34.8842 2.4138L37.9564 1.92755L37.202 5.0665H40.4922L39.8981 7.53596H36.6277L35.7566 11.2609C35.6763 11.5714 35.6308 11.8614 35.6181 12.1309C35.6036 12.4016 35.6372 12.6341 35.7165 12.8299C35.7952 13.0261 35.9369 13.1774 36.1425 13.2844C36.347 13.3931 36.6399 13.4479 37.0241 13.4479C37.3405 13.4479 37.6488 13.4171 37.9469 13.3561C38.2432 13.2961 38.5435 13.2126 38.8474 13.1034L39.0661 15.4123C38.6697 15.5608 38.2405 15.6886 37.778 15.7961C37.3148 15.9051 36.7665 15.9576 36.1327 15.9576C35.2214 15.9576 34.515 15.8193 34.0116 15.5441C33.509 15.2668 33.1537 14.8881 32.9411 14.4086C32.7314 13.9309 32.6377 13.3801 32.6638 12.7596C32.691 12.1376 32.7828 11.4839 32.9411 10.7954L34.8842 2.4138Z" fill="#666666"/>
</g>
<path d="M40.3643 11.4637C40.3643 10.5464 40.5096 9.68146 40.8001 8.87172C41.09 8.06124 41.5077 7.3525 42.0497 6.74425C42.5898 6.13901 43.2478 5.65952 44.0222 5.30752C44.793 4.95753 45.6561 4.78104 46.6072 4.78104C47.2026 4.78104 47.7343 4.83854 48.2022 4.95379C48.672 5.07003 49.097 5.22028 49.4815 5.40878L48.4699 7.75874C48.2056 7.64924 47.9313 7.55274 47.6477 7.46524C47.3638 7.376 47.0174 7.333 46.6075 7.333C45.6284 7.333 44.8545 7.67774 44.2784 8.36498C43.7046 9.05272 43.4156 9.97845 43.4156 11.1397C43.4156 11.8279 43.561 12.3844 43.8527 12.8102C44.1429 13.2359 44.679 13.4476 45.4574 13.4476C45.8416 13.4476 46.2123 13.4067 46.5674 13.3267C46.9251 13.2457 47.241 13.1437 47.5192 13.0232L47.7382 15.4321C47.3673 15.5791 46.9581 15.7119 46.5094 15.8281C46.0596 15.9404 45.5242 15.9986 44.9034 15.9986C44.0839 15.9986 43.3902 15.8761 42.8227 15.6349C42.255 15.3899 41.786 15.0646 41.4165 14.6526C41.045 14.2396 40.7783 13.7574 40.6134 13.2039C40.4484 12.6509 40.3643 12.0699 40.3643 11.4637Z" fill="#666666"/>
<path d="M53.3938 15.9986C52.6937 15.9986 52.0857 15.8896 51.5698 15.6739C51.0555 15.4581 50.6295 15.1554 50.2925 14.7629C49.9551 14.3724 49.7025 13.9096 49.5295 13.3764C49.3565 12.8434 49.2733 12.2532 49.2733 11.6064C49.2733 10.7952 49.4008 9.98421 49.6585 9.17547C49.9149 8.36498 50.2954 7.63675 50.799 6.98951C51.2987 6.34127 51.9151 5.81127 52.6409 5.39802C53.3659 4.98753 54.1999 4.78104 55.1366 4.78104C55.8239 4.78104 56.4288 4.89028 56.9517 5.10603C57.4722 5.32127 57.9009 5.62652 58.2398 6.01702C58.5751 6.40951 58.8298 6.87026 59.0011 7.40425C59.1736 7.93624 59.2587 8.52798 59.2587 9.17522C59.2587 9.98395 59.133 10.7949 58.8834 11.6062C58.6335 12.4134 58.2628 13.1434 57.7734 13.7921C57.285 14.4394 56.6742 14.9691 55.9406 15.3806C55.208 15.7921 54.3584 15.9986 53.3938 15.9986ZM54.8598 7.33325C54.425 7.33325 54.0406 7.46224 53.7114 7.71699C53.3811 7.97473 53.1036 8.29873 52.8799 8.68948C52.6538 9.08197 52.4862 9.50996 52.3729 9.97521C52.2606 10.4414 52.2056 10.8822 52.2056 11.3009C52.2056 11.9767 52.3123 12.5029 52.522 12.8817C52.7346 13.2584 53.1166 13.4479 53.6718 13.4479C54.1081 13.4479 54.4906 13.3199 54.8216 13.0624C55.15 12.8067 55.4278 12.4824 55.6531 12.0909C55.8778 11.7004 56.0468 11.2712 56.1601 10.8052C56.271 10.3405 56.3275 9.89721 56.3275 9.47921C56.3275 8.80522 56.2213 8.27773 56.0096 7.89949C55.7982 7.52274 55.4145 7.33325 54.8598 7.33325Z" fill="#666666"/>
<path d="M62.4557 15.7161H59.5201L61.9972 5.06705H64.9519L62.4557 15.7161ZM63.8808 3.76957C63.4717 3.76957 63.1008 3.64507 62.7719 3.39557C62.4415 3.14758 62.2756 2.76583 62.2756 2.25134C62.2756 1.96835 62.3326 1.70285 62.4445 1.45235C62.5563 1.20235 62.7053 0.987111 62.8908 0.804114C63.0751 0.622616 63.2916 0.477616 63.5348 0.368368C63.7786 0.260869 64.0394 0.207123 64.3164 0.207123C64.7265 0.207123 65.097 0.331621 65.4269 0.581118C65.7569 0.831864 65.9236 1.21361 65.9236 1.72535C65.9236 2.00934 65.8644 2.27584 65.7535 2.52584C65.6427 2.77583 65.4937 2.99107 65.3089 3.17407C65.1229 3.35582 64.9091 3.50032 64.6653 3.60857C64.4197 3.71781 64.1593 3.76957 63.8808 3.76957Z" fill="#666666"/>
<path d="M67.0663 5.55127C67.2889 5.48477 67.5375 5.40478 67.8079 5.31778C68.0793 5.23078 68.3825 5.14978 68.7212 5.07679C69.0561 5.00154 69.4342 4.94054 69.85 4.89329C70.2657 4.84504 70.7394 4.82153 71.2658 4.82153C72.8127 4.82153 73.8791 5.28178 74.4679 6.19952C75.0561 7.11725 75.1579 8.37323 74.7762 9.96521L73.4269 15.7151H70.4744L71.7821 10.0862C71.8619 9.73471 71.9245 9.39496 71.9708 9.06297C72.0175 8.73397 72.0148 8.44398 71.9602 8.19299C71.9081 7.94499 71.7853 7.74199 71.5946 7.58474C71.4011 7.42999 71.1087 7.35225 70.712 7.35225C70.3296 7.35225 69.9405 7.39425 69.5433 7.47525L67.6207 15.7149H64.667L67.0663 5.55127Z" fill="#666666"/>
</svg>
