<svg width="12" height="12" viewBox="0 0 12 12" fill="none" xmlns="http://www.w3.org/2000/svg">
<path fill-rule="evenodd" clip-rule="evenodd" d="M6.65504 2.44505C7.13243 1.96766 7.77991 1.69946 8.45504 1.69946C9.13017 1.69946 9.77765 1.96766 10.255 2.44505C10.7324 2.92244 11.0006 3.56992 11.0006 4.24505C11.0006 4.92018 10.7324 5.56766 10.255 6.04505L9.60004 6.70005L6.00004 10.3L2.40004 6.70005L1.74504 6.04505C1.26765 5.56766 0.999451 4.92018 0.999451 4.24505C0.999451 3.56992 1.26765 2.92244 1.74504 2.44505C2.22243 1.96766 2.8699 1.69946 3.54504 1.69946C4.22017 1.69946 4.86765 1.96766 5.34504 2.44505L6.00004 3.10005L6.65504 2.44505Z" stroke="#E6704B" fill="#e6704b" stroke-linecap="round" stroke-linejoin="bevel"/>
</svg>
