<svg width="76" height="19" viewBox="0 0 76 19" fill="none" xmlns="http://www.w3.org/2000/svg">
<path d="M28.4159 4.09027H24.2104C24.0712 4.09018 23.9365 4.13911 23.8307 4.22822C23.7248 4.31734 23.6547 4.44079 23.633 4.57633L21.9322 15.2048C21.9243 15.2541 21.9274 15.3045 21.9413 15.3526C21.9551 15.4006 21.9794 15.4451 22.0123 15.483C22.0453 15.5209 22.0862 15.5513 22.1322 15.5721C22.1783 15.5929 22.2283 15.6037 22.279 15.6036H24.2867C24.426 15.6037 24.5607 15.5547 24.6666 15.4654C24.7725 15.3762 24.8425 15.2526 24.8641 15.1169L25.3228 12.2503C25.3444 12.1147 25.4143 11.9912 25.5201 11.902C25.6258 11.8128 25.7604 11.7637 25.8996 11.7636H27.2309C30.0011 11.7636 31.5999 10.4424 32.0174 7.82421C32.2056 6.67876 32.0254 5.77876 31.4812 5.14845C30.8835 4.45633 29.8234 4.09027 28.4159 4.09027ZM28.901 7.97209C28.6711 9.45936 27.5181 9.45936 26.4032 9.45936H25.7686L26.2138 6.68179C26.2269 6.60052 26.2689 6.52652 26.3324 6.47308C26.3958 6.41964 26.4766 6.39027 26.56 6.39027H26.8509C27.6103 6.39027 28.3267 6.39027 28.6969 6.81694C28.9176 7.07148 28.9853 7.44967 28.901 7.97209ZM40.9867 7.92421H38.9728C38.8893 7.92421 38.8086 7.95357 38.7451 8.00701C38.6817 8.06046 38.6396 8.13446 38.6266 8.21573L38.5374 8.77088L38.3966 8.56967C37.9606 7.94603 36.9885 7.73754 36.0181 7.73754C33.7927 7.73754 31.892 9.39876 31.5218 11.7291C31.3294 12.8915 31.603 14.003 32.272 14.7782C32.8857 15.4909 33.7638 15.7878 34.8086 15.7878C36.6017 15.7878 37.596 14.6515 37.596 14.6515L37.5062 15.203C37.4982 15.2523 37.5012 15.3027 37.5148 15.3508C37.5285 15.3989 37.5526 15.4435 37.5855 15.4815C37.6183 15.5195 37.6591 15.5501 37.7051 15.5711C37.7511 15.592 37.8011 15.6029 37.8518 15.603H39.6658C39.8051 15.6031 39.9399 15.5541 40.0458 15.4648C40.1516 15.3756 40.2217 15.252 40.2432 15.1163L41.3316 8.323C41.3396 8.2738 41.3367 8.22347 41.3231 8.17549C41.3094 8.12752 41.2854 8.08303 41.2526 8.04511C41.2198 8.00719 41.179 7.97675 41.1331 7.95587C41.0872 7.935 41.0372 7.9242 40.9867 7.92421ZM38.1796 11.7872C37.9852 12.9212 37.0721 13.6824 35.9074 13.6824C35.3226 13.6824 34.8553 13.4975 34.5552 13.1472C34.2576 12.7994 34.1445 12.3042 34.2391 11.7527C34.4206 10.6285 35.3491 9.84239 36.4959 9.84239C37.0678 9.84239 37.5327 10.0297 37.8389 10.383C38.1457 10.74 38.2675 11.2381 38.1796 11.7872ZM51.7121 7.92421H49.6884C49.5929 7.92436 49.499 7.94746 49.4147 7.9915C49.3303 8.03554 49.2582 8.09919 49.2044 8.17694L46.4133 12.2291L45.2302 8.33512C45.1939 8.21636 45.1198 8.11227 45.0188 8.03827C44.9178 7.96426 44.7953 7.92427 44.6694 7.92421H42.6808C42.6249 7.92406 42.5699 7.93706 42.5202 7.96212C42.4705 7.98718 42.4276 8.02357 42.3951 8.06827C42.3625 8.11298 42.3413 8.16469 42.3331 8.21912C42.3249 8.27355 42.3301 8.32911 42.3481 8.38118L44.5772 14.8285L42.4815 17.7442C42.4443 17.7959 42.4222 17.8567 42.4177 17.92C42.4132 17.9832 42.4264 18.0465 42.4559 18.1028C42.4855 18.1591 42.5301 18.2063 42.5851 18.2393C42.64 18.2723 42.7031 18.2897 42.7675 18.2897H44.7887C44.8831 18.2898 44.9761 18.2674 45.0597 18.2243C45.1434 18.1812 45.2152 18.1188 45.269 18.0424L51.9999 8.46663C52.0364 8.41483 52.0577 8.35417 52.0617 8.29123C52.0657 8.22829 52.0522 8.16547 52.0225 8.10959C51.9929 8.05371 51.9483 8.00689 51.8935 7.97421C51.8388 7.94153 51.7761 7.92424 51.7121 7.92421Z" fill="#022273"/>
<path d="M58.412 4.0903H54.206C54.0668 4.09036 53.9323 4.13934 53.8266 4.22845C53.7208 4.31755 53.6508 4.44092 53.6292 4.57636L51.9283 15.2048C51.9204 15.2541 51.9234 15.3044 51.9371 15.3524C51.9509 15.4004 51.975 15.4448 52.0078 15.4827C52.0407 15.5207 52.0815 15.5511 52.1274 15.572C52.1733 15.5928 52.2233 15.6036 52.2739 15.6036H54.4322C54.5296 15.6035 54.6237 15.5691 54.6977 15.5067C54.7716 15.4442 54.8205 15.3578 54.8356 15.263L55.3183 12.2503C55.3399 12.1147 55.4098 11.9912 55.5156 11.902C55.6213 11.8128 55.7559 11.7637 55.8951 11.7636H57.2258C59.9966 11.7636 61.5948 10.4424 62.013 7.82424C62.2017 6.67878 62.0203 5.77878 61.4761 5.14848C60.8791 4.45636 59.8195 4.0903 58.412 4.0903ZM58.8972 7.97212C58.6678 9.45939 57.5148 9.45939 56.3994 9.45939H55.7654L56.2112 6.68181C56.224 6.60055 56.2659 6.52648 56.3292 6.47301C56.3926 6.41953 56.4734 6.3902 56.5568 6.3903H56.8476C57.6065 6.3903 58.3234 6.3903 58.6936 6.81696C58.9144 7.07151 58.9814 7.44969 58.8972 7.97212ZM70.9822 7.92424H68.9696C68.8861 7.92401 68.8053 7.95331 68.7419 8.0068C68.6785 8.06029 68.6366 8.13443 68.624 8.21575L68.5348 8.7709L68.3934 8.56969C67.9574 7.94605 66.9858 7.73757 66.0155 7.73757C63.7901 7.73757 61.89 9.39878 61.5198 11.7291C61.3279 12.8915 61.6004 14.003 62.2694 14.7782C62.8843 15.4909 63.7612 15.7879 64.8059 15.7879C66.599 15.7879 67.5934 14.6515 67.5934 14.6515L67.5036 15.203C67.4956 15.2524 67.4985 15.303 67.5123 15.3511C67.526 15.3993 67.5502 15.444 67.5832 15.482C67.6162 15.52 67.6572 15.5506 67.7033 15.5715C67.7494 15.5924 67.7996 15.6031 67.8504 15.603H69.6638C69.803 15.6029 69.9376 15.5539 70.0434 15.4646C70.1491 15.3754 70.2191 15.2519 70.2406 15.1164L71.3296 8.32302C71.3373 8.27367 71.3341 8.22325 71.3202 8.17524C71.3063 8.12722 71.282 8.08274 71.249 8.04485C71.216 8.00697 71.175 7.97657 71.129 7.95575C71.0829 7.93493 71.0329 7.92418 70.9822 7.92424ZM68.1751 11.7873C67.982 12.9212 67.0676 13.6824 65.903 13.6824C65.3194 13.6824 64.8508 13.4976 64.5507 13.1473C64.2531 12.7994 64.1412 12.3042 64.2347 11.7527C64.4173 10.6285 65.3446 9.84242 66.4914 9.84242C67.0633 9.84242 67.5282 10.0297 67.8344 10.383C68.1425 10.74 68.2642 11.2382 68.1751 11.7873ZM73.3564 4.38181L71.6303 15.2048C71.6224 15.2541 71.6254 15.3044 71.6391 15.3524C71.6529 15.4004 71.677 15.4448 71.7098 15.4827C71.7427 15.5207 71.7835 15.5511 71.8294 15.572C71.8753 15.5928 71.9253 15.6036 71.9759 15.6036H73.7112C73.9996 15.6036 74.2443 15.3976 74.2886 15.117L75.9907 4.48909C75.9986 4.43982 75.9956 4.38945 75.9819 4.34145C75.9681 4.29344 75.944 4.24893 75.9112 4.21098C75.8784 4.17303 75.8376 4.14254 75.7916 4.1216C75.7457 4.10067 75.6957 4.08978 75.6451 4.08969H73.702C73.6186 4.08998 73.538 4.11954 73.4746 4.17307C73.4113 4.22659 73.3694 4.3006 73.3564 4.38181Z" fill="#167FC4"/>
<path d="M4.46795 17.6691L4.78955 15.6558L4.07317 15.6394H0.652374L3.02965 0.783032C3.03673 0.737639 3.06012 0.696265 3.09557 0.66645C3.13101 0.636635 3.17614 0.620366 3.22274 0.620608H8.99068C10.9055 0.620608 12.227 1.01334 12.9169 1.78849C13.2404 2.15212 13.4464 2.53212 13.546 2.95031C13.6505 3.38909 13.6524 3.91334 13.5503 4.55273L13.5429 4.5994V5.00909L13.8664 5.1897C14.1133 5.313 14.3353 5.47978 14.5213 5.68182C14.798 5.99273 14.9769 6.38788 15.0526 6.85637C15.1307 7.33818 15.1048 7.91152 14.9769 8.56061C14.8293 9.30728 14.5908 9.95758 14.2685 10.4897C13.9842 10.9664 13.602 11.3793 13.1463 11.7018C12.7183 12.0012 12.2098 12.2285 11.6348 12.3739C11.0777 12.517 10.4425 12.5891 9.7458 12.5891H9.29691C8.97592 12.5891 8.66416 12.703 8.41942 12.9073C8.17503 13.1137 8.01291 13.3989 7.96192 13.7121L7.9281 13.8933L7.35992 17.4418L7.33409 17.5721C7.32732 17.6133 7.31564 17.6339 7.29842 17.6479C7.28174 17.6613 7.26094 17.6688 7.23939 17.6691H4.46795Z" fill="#022273"/>
<path d="M14.1731 4.64667C14.1559 4.75515 14.1362 4.86606 14.1141 4.98C13.3535 8.82909 10.7511 10.1588 7.42747 10.1588H5.73522C5.32875 10.1588 4.98624 10.4497 4.92291 10.8448L4.05649 16.2606L3.81113 17.7958C3.80136 17.8567 3.80509 17.9189 3.82207 17.9782C3.83905 18.0376 3.86888 18.0926 3.90949 18.1395C3.95011 18.1864 4.00055 18.224 4.05735 18.2498C4.11415 18.2757 4.17595 18.2891 4.2385 18.2891H7.23992C7.59535 18.2891 7.89727 18.0345 7.95323 17.6891L7.98275 17.5388L8.54786 14.0042L8.58414 13.8103C8.63948 13.4636 8.94202 13.2091 9.29744 13.2091H9.74633C12.6543 13.2091 14.9307 12.0455 15.5961 8.67818C15.874 7.27152 15.7301 6.09697 14.9947 5.27091C14.7616 5.01537 14.4832 4.80384 14.1731 4.64667Z" fill="#167FC4"/>
<path d="M13.3764 4.33394C13.1336 4.2647 12.8865 4.21065 12.6367 4.17212C12.1431 4.09736 11.6443 4.06149 11.1449 4.06485H6.624C6.45195 4.06472 6.28553 4.12526 6.15482 4.23552C6.02411 4.34579 5.93774 4.4985 5.91131 4.66606L4.94958 10.6697L4.92191 10.8449C4.95187 10.6537 5.05024 10.4795 5.19924 10.3537C5.34823 10.2278 5.538 10.1587 5.73421 10.1588H7.42647C10.7501 10.1588 13.3525 8.82849 14.1131 4.98C14.1359 4.86606 14.1549 4.75516 14.1721 4.64667C13.9714 4.54293 13.7622 4.45596 13.5468 4.38667C13.4903 4.3682 13.4335 4.35062 13.3764 4.33394Z" fill="#022273"/>
<path d="M5.91187 4.66606C5.93807 4.49845 6.0244 4.34567 6.15517 4.23546C6.28595 4.12525 6.4525 4.06493 6.62456 4.06545H11.1454C11.681 4.06545 12.181 4.1 12.6372 4.17273C12.946 4.22055 13.2505 4.29208 13.5479 4.38667C13.7724 4.46 13.9808 4.54667 14.1733 4.64667C14.3996 3.22424 14.1715 2.25576 13.3911 1.37879C12.5309 0.413333 10.9782 0 8.99139 0H3.22344C2.8176 0 2.4714 0.290909 2.40868 0.686667L0.00618523 15.6958C-0.00500517 15.7654 -0.000747606 15.8367 0.018665 15.9046C0.0380777 15.9725 0.0721847 16.0355 0.11864 16.0891C0.165095 16.1428 0.222796 16.1859 0.287774 16.2155C0.352751 16.2451 0.423464 16.2605 0.495046 16.2606H4.05604L4.95014 10.6697L5.91187 4.66606Z" fill="#022273"/>
</svg>
