<svg width="15" height="14" viewBox="0 0 15 14" fill="none" xmlns="http://www.w3.org/2000/svg">
<path fill-rule="evenodd" clip-rule="evenodd" d="M6.81993 1.12669C6.86598 0.980663 6.95739 0.853118 7.08087 0.762581C7.20435 0.672044 7.35348 0.62323 7.5066 0.62323C7.65972 0.62323 7.80885 0.672044 7.93233 0.762581C8.05581 0.853118 8.14722 0.980663 8.19327 1.12669L9.43327 4.94002H13.4333C13.5919 4.93403 13.7481 4.98012 13.878 5.07125C14.0079 5.16238 14.1044 5.29355 14.1528 5.4447C14.2012 5.59586 14.1987 5.75869 14.1459 5.90833C14.093 6.05796 13.9925 6.18617 13.8599 6.27336L10.6133 8.62669L11.8533 12.4467C11.9023 12.5922 11.9035 12.7496 11.8568 12.8958C11.81 13.0421 11.7178 13.1696 11.5934 13.2597C11.4691 13.3498 11.3192 13.3978 11.1656 13.3966C11.0121 13.3955 10.8629 13.3453 10.7399 13.2534L7.4866 10.8734L4.23993 13.2334C4.11694 13.3253 3.96778 13.3755 3.81423 13.3766C3.66068 13.3778 3.51079 13.3298 3.38645 13.2397C3.26211 13.1496 3.16982 13.0221 3.12307 12.8758C3.07633 12.7296 3.07756 12.5722 3.1266 12.4267L4.3666 8.60669L1.11994 6.25336C0.987324 6.16617 0.886903 6.03796 0.834016 5.88833C0.781128 5.73869 0.778682 5.57586 0.827052 5.4247C0.875422 5.27355 0.971947 5.14238 1.10188 5.05125C1.23181 4.96012 1.38801 4.91403 1.5466 4.92002H5.5466L6.81993 1.12669Z" fill="#FDBC15"/>
</svg>
