<svg width="49" height="16" viewBox="0 0 49 16" fill="none" xmlns="http://www.w3.org/2000/svg">
<g clip-path="url(#clip0_319_36938)">
<path d="M21.2328 15.7692H17.2635L19.7462 0.280762H23.7153L21.2328 15.7692Z" fill="#00579F"/>
<path d="M35.6221 0.659404C34.8392 0.346018 33.5974 0 32.0619 0C28.1421 0 25.3818 2.10895 25.3648 5.12412C25.3323 7.3487 27.3411 8.58429 28.8436 9.32604C30.3793 10.084 30.9013 10.5787 30.9013 11.2543C30.8857 12.2919 29.6604 12.7702 28.5176 12.7702C26.9328 12.7702 26.0837 12.5236 24.7933 11.9464L24.2706 11.6989L23.7152 15.1757C24.6461 15.6036 26.3613 15.9834 28.1421 16C32.307 16 35.0185 13.9237 35.0506 10.7105C35.0664 8.94739 34.0057 7.59639 31.7188 6.49242C30.3305 5.78374 29.4802 5.30589 29.4802 4.58079C29.4965 3.9216 30.1994 3.24643 31.7665 3.24643C33.0569 3.21336 34.005 3.52631 34.7233 3.83948L35.0823 4.00394L35.6221 0.659404Z" fill="#00579F"/>
<path d="M40.8985 10.2822C41.2254 9.3924 42.4832 5.94865 42.4832 5.94865C42.4667 5.98172 42.8095 5.04244 43.0055 4.46582L43.2829 5.80039C43.2829 5.80039 44.0345 9.50781 44.1978 10.2822C43.5774 10.2822 41.6825 10.2822 40.8985 10.2822ZM45.7981 0.280762H42.7279C41.781 0.280762 41.0617 0.560641 40.6532 1.56584L34.7573 15.769H38.9222C38.9222 15.769 39.6079 13.8573 39.7552 13.4456C40.2121 13.4456 44.2638 13.4456 44.8515 13.4456C44.9655 13.9894 45.3252 15.769 45.3252 15.769H49.0004L45.7981 0.280762Z" fill="#00579F"/>
<path d="M13.9481 0.280762L10.0608 10.8424L9.63605 8.70036C8.91737 6.22875 6.66343 3.5434 4.14816 2.20816L7.70879 15.7528H11.9063L18.1454 0.280762H13.9481Z" fill="#00579F"/>
<path d="M6.45162 0.280762H0.0653342L0 0.59371C4.9817 1.87901 8.28099 4.97718 9.63651 8.70102L8.24821 1.58271C8.01965 0.593491 7.31725 0.313392 6.45162 0.280762Z" fill="#F4A622"/>
</g>
<defs>
<clipPath id="clip0_319_36938">
<rect width="49" height="16" fill="white"/>
</clipPath>
</defs>
</svg>
